<?xml version="1.0" encoding="utf-8"?>
<!-- Generator: Adobe Illustrator 23.0.0, SVG Export Plug-In . SVG Version: 6.00 Build 0)  -->
<svg version="1.1" id="Layer_1" xmlns="http://www.w3.org/2000/svg" xmlns:xlink="http://www.w3.org/1999/xlink" x="0px" y="0px"
	 viewBox="0 0 400 400" style="enable-background:new 0 0 400 400;" xml:space="preserve">
<style type="text/css">
	.st0{fill:#FFFFFF;}
	.st1{fill:#CCCCFF;}
</style>
<g>
	<rect class="st0" width="400" height="400"/>
	<g>
		<g>
			<g>
				<g>
					<path class="st1" d="M348.41,200.04c-2.04,0-3.73,1.41-4.19,3.31h-16.63l-23.67-23.67h-84.27l-22.48,22.48
						c-0.69-0.46-1.51-0.73-2.4-0.73c-2.37,0-4.31,1.94-4.31,4.32c0,2.37,1.94,4.31,4.31,4.31c2.38,0,4.32-1.94,4.32-4.31
						c0-0.77-0.22-1.48-0.57-2.11l3.8-3.8v12.82l-8.62,8.61h-10.58c-0.45-1.89-2.15-3.31-4.18-3.31c-2.38,0-4.31,1.94-4.31,4.31
						c0,2.38,1.93,4.32,4.31,4.32c2.03,0,3.73-1.42,4.18-3.32h11.41l9.79-9.78v-15.65l16.16-16.16h82.61l23.67,23.67h17.46
						c0.46,1.89,2.15,3.31,4.19,3.31c2.37,0,4.31-1.93,4.31-4.31C352.72,201.97,350.78,200.04,348.41,200.04z M194.77,208.06
						c-1.27,0-2.31-1.04-2.31-2.31c0-1.28,1.04-2.32,2.31-2.32c1.28,0,2.32,1.04,2.32,2.32
						C197.09,207.02,196.05,208.06,194.77,208.06z M178.94,224.59c-1.28,0-2.31-1.04-2.31-2.32c0-1.27,1.03-2.31,2.31-2.31
						c1.28,0,2.31,1.04,2.31,2.31C181.25,223.55,180.22,224.59,178.94,224.59z M348.41,206.66c-1.28,0-2.32-1.04-2.32-2.31
						c0-1.28,1.04-2.31,2.32-2.31c1.27,0,2.31,1.03,2.31,2.31C350.72,205.62,349.68,206.66,348.41,206.66z"/>
				</g>
			</g>
			<g>
				<g>
					<path class="st1" d="M292.26,214.63v6.64H272.7l-5.16-5.16h-22c-0.45-1.9-2.15-3.32-4.18-3.32c-2.38,0-4.32,1.94-4.32,4.32
						c0,2.37,1.94,4.31,4.32,4.31c2.03,0,3.73-1.42,4.18-3.31h21.17l5.17,5.16h20.38v5.69h14.33v-14.33H292.26z M241.36,219.42
						c-1.28,0-2.32-1.04-2.32-2.31c0-1.28,1.04-2.32,2.32-2.32c1.27,0,2.31,1.04,2.31,2.32
						C243.67,218.38,242.63,219.42,241.36,219.42z"/>
				</g>
			</g>
			<g>
				<g>
					<path class="st1" d="M292.26,233.12v0.63h-45.8l-7.31-7.3h-11.19l-4.68-4.69h-13.99c-0.45-1.89-2.15-3.31-4.18-3.31
						c-2.38,0-4.32,1.93-4.32,4.31s1.94,4.31,4.32,4.31c2.03,0,3.73-1.41,4.18-3.31h13.16l4.69,4.69h11.19l7.3,7.3h46.63v3.53
						h-47.37l-6.56-6.55h-16.8c-0.45-1.9-2.15-3.32-4.19-3.32c-2.37,0-4.31,1.94-4.31,4.32c0,2.38,1.94,4.31,4.31,4.31
						c2.04,0,3.74-1.42,4.19-3.31h15.97l6.56,6.55h48.2v3.64h-49.68l-6.23-6.23h-11.42l-6.15,6.14h-12.04
						c-0.48-1.85-2.16-3.23-4.16-3.23c-2.38,0-4.31,1.94-4.31,4.32c0,2.37,1.93,4.31,4.31,4.31c2.06,0,3.79-1.46,4.21-3.4h12.82
						l6.15-6.14h9.77l6.23,6.23h50.5v0.53h14.33v-14.33H292.26z M205.11,225.07c-1.28,0-2.32-1.03-2.32-2.31
						c0-1.27,1.04-2.31,2.32-2.31c1.27,0,2.31,1.04,2.31,2.31C207.42,224.04,206.38,225.07,205.11,225.07z M217.34,236.04
						c-1.27,0-2.31-1.04-2.31-2.31c0-1.28,1.04-2.32,2.31-2.32c1.28,0,2.32,1.04,2.32,2.32C219.66,235,218.62,236.04,217.34,236.04z
						 M202.58,248.23c-1.27,0-2.31-1.04-2.31-2.31c0-1.28,1.04-2.32,2.31-2.32c1.28,0,2.31,1.04,2.31,2.32
						C204.89,247.19,203.86,248.23,202.58,248.23z"/>
				</g>
			</g>
			<g>
				<g>
					<path class="st1" d="M292.26,251.61v1.47h-42.78l-14.38,14.38v50.76l-4.51,4.51v8.09c-1.9,0.45-3.32,2.15-3.32,4.18
						c0,2.38,1.94,4.32,4.32,4.32c2.37,0,4.31-1.94,4.31-4.32c0-2.03-1.42-3.73-3.31-4.18v-7.26l4.51-4.51v-50.76l13.21-13.21h41.95
						v2.35H252.7l-13.57,13.56v49.82c-1.89,0.46-3.31,2.15-3.31,4.19c0,2.38,1.93,4.31,4.31,4.31s4.31-1.93,4.31-4.31
						c0-2.04-1.41-3.73-3.31-4.19v-48.99l12.39-12.39h38.74v2.8h-36.24l-12.35,12.35v44.09l5.12,5.12v6.32
						c-1.86,0.48-3.24,2.16-3.24,4.16c0,2.38,1.94,4.32,4.31,4.32c2.38,0,4.32-1.94,4.32-4.32c0-2.06-1.46-3.78-3.39-4.2v-7.11
						l-5.12-5.12v-42.43l11.18-11.18h35.41v1.71h14.33v-14.33H292.26z M233.9,335c0,1.28-1.04,2.32-2.31,2.32
						c-1.28,0-2.32-1.04-2.32-2.32c0-1.27,1.04-2.31,2.32-2.31C232.86,332.69,233.9,333.73,233.9,335z M242.44,325
						c0,1.27-1.03,2.31-2.31,2.31c-1.27,0-2.31-1.04-2.31-2.31c0-1.28,1.04-2.32,2.31-2.32C241.41,322.68,242.44,323.72,242.44,325z
						 M252.18,334.27c0,1.28-1.04,2.32-2.32,2.32c-1.27,0-2.31-1.04-2.31-2.32c0-1.27,1.04-2.31,2.31-2.31
						C251.14,331.96,252.18,333,252.18,334.27z"/>
				</g>
			</g>
			<g>
				<g>
					<path class="st1" d="M292.26,270.1v5.59l-12.37,12.37v40.47c-1.89,0.45-3.31,2.15-3.31,4.18c0,2.38,1.93,4.31,4.31,4.31
						s4.32-1.93,4.32-4.31c0-2.03-1.42-3.73-3.32-4.18v-39.64l10.37-10.37v5.91h14.33V270.1H292.26z M283.21,332.71
						c0,1.28-1.04,2.31-2.32,2.31c-1.27,0-2.31-1.03-2.31-2.31c0-1.27,1.04-2.31,2.31-2.31
						C282.17,330.4,283.21,331.44,283.21,332.71z"/>
				</g>
			</g>
			<g>
				<g>
					<path class="st1" d="M230.64,147.63c-2.03,0-3.73,1.42-4.18,3.31h-15.51l-30.99,30.99c-0.64-0.39-1.4-0.63-2.21-0.63
						c-2.38,0-4.31,1.93-4.31,4.31s1.93,4.32,4.31,4.32s4.32-1.94,4.32-4.32c0-0.84-0.26-1.62-0.67-2.28l30.38-30.39h14.68
						c0.45,1.9,2.15,3.32,4.18,3.32c2.38,0,4.32-1.94,4.32-4.32C234.96,149.57,233.02,147.63,230.64,147.63z M177.75,187.93
						c-1.27,0-2.31-1.04-2.31-2.32c0-1.27,1.04-2.31,2.31-2.31c1.28,0,2.32,1.04,2.32,2.31
						C180.07,186.89,179.03,187.93,177.75,187.93z M230.64,154.26c-1.27,0-2.31-1.04-2.31-2.32c0-1.27,1.04-2.31,2.31-2.31
						c1.28,0,2.32,1.04,2.32,2.31C232.96,153.22,231.92,154.26,230.64,154.26z"/>
				</g>
			</g>
			<g>
				<g>
					<path class="st1" d="M208.75,139.38l-12.24,12.24c-0.67-0.42-1.46-0.68-2.31-0.68c-2.37,0-4.31,1.94-4.31,4.32
						s1.94,4.31,4.31,4.31c2.38,0,4.32-1.93,4.32-4.31c0-0.81-0.24-1.55-0.62-2.2l11.68-11.68h59.3v-2H208.75z M194.2,157.57
						c-1.27,0-2.31-1.04-2.31-2.31c0-1.28,1.04-2.32,2.31-2.32c1.28,0,2.32,1.04,2.32,2.32
						C196.52,156.53,195.48,157.57,194.2,157.57z"/>
				</g>
			</g>
			<g>
				<g>
					<path class="st1" d="M233.65,127.41c-0.76,0-1.47,0.21-2.09,0.56l-10.45-10.45h-28.73l-18.24,18.25v30.99
						c-1.9,0.46-3.32,2.16-3.32,4.19c0,2.38,1.94,4.31,4.32,4.31c2.37,0,4.31-1.93,4.31-4.31c0-2.03-1.42-3.73-3.31-4.19V136.6
						l7.24-7.24v19.77c-1.9,0.45-3.31,2.15-3.31,4.18c0,2.38,1.93,4.31,4.31,4.31s4.31-1.93,4.31-4.31c0-2.03-1.42-3.73-3.31-4.18
						v-21.77l7.83-7.84h14.27l9.71,9.7c-0.51,0.71-0.81,1.57-0.81,2.5c0,2.38,1.93,4.31,4.31,4.31s4.31-1.93,4.31-4.31
						s-1.93-4.31-4.31-4.31c-0.72,0-1.39,0.19-1.99,0.5l-8.39-8.39h9.97l9.79,9.8c-0.46,0.68-0.73,1.51-0.73,2.4
						c0,2.38,1.94,4.31,4.31,4.31c2.38,0,4.32-1.93,4.32-4.31S236.03,127.41,233.65,127.41z M177.45,170.95
						c0,1.27-1.04,2.31-2.31,2.31c-1.28,0-2.32-1.04-2.32-2.31c0-1.28,1.04-2.32,2.32-2.32
						C176.41,168.63,177.45,169.67,177.45,170.95z M186.69,153.31c0,1.27-1.04,2.31-2.31,2.31c-1.28,0-2.31-1.04-2.31-2.31
						c0-1.28,1.03-2.31,2.31-2.31C185.65,151,186.69,152.03,186.69,153.31z M220.69,129.41c1.28,0,2.31,1.03,2.31,2.31
						c0,1.28-1.03,2.31-2.31,2.31c-1.27,0-2.31-1.03-2.31-2.31C218.38,130.44,219.42,129.41,220.69,129.41z M233.65,134.03
						c-1.27,0-2.31-1.03-2.31-2.31c0-1.28,1.04-2.31,2.31-2.31c1.28,0,2.32,1.03,2.32,2.31C235.97,133,234.93,134.03,233.65,134.03z
						"/>
				</g>
			</g>
			<g>
				<g>
					<path class="st1" d="M259.18,118.55l-8.54,8.55c-0.64-0.37-1.37-0.6-2.15-0.6c-2.38,0-4.32,1.94-4.32,4.31
						c0,2.38,1.94,4.32,4.32,4.32c2.37,0,4.31-1.94,4.31-4.32c0-0.86-0.26-1.67-0.7-2.34l7.91-7.92h10.8l-7.11,7.11
						c-0.77-0.71-1.79-1.16-2.92-1.16c-2.37,0-4.31,1.94-4.31,4.31c0,2.38,1.94,4.32,4.31,4.32c2.38,0,4.32-1.94,4.32-4.32
						c0-0.51-0.11-0.99-0.27-1.45l8.81-8.81h32.48v-2H259.18z M248.49,133.13c-1.28,0-2.32-1.04-2.32-2.32
						c0-1.27,1.04-2.31,2.32-2.31c1.27,0,2.31,1.04,2.31,2.31C250.8,132.09,249.76,133.13,248.49,133.13z M260.78,133.13
						c-1.27,0-2.31-1.04-2.31-2.32c0-1.27,1.04-2.31,2.31-2.31c1.28,0,2.32,1.04,2.32,2.31
						C263.1,132.09,262.06,133.13,260.78,133.13z"/>
				</g>
			</g>
			<g>
				<g>
					<path class="st1" d="M359.34,41.57v17.95l-15.69,15.69v38.22l-8.39,8.38h-14.14l-6.29,6.3h-10.56
						c-0.45-1.9-2.15-3.32-4.18-3.32c-2.38,0-4.32,1.94-4.32,4.32c0,2.37,1.94,4.31,4.32,4.31c2.03,0,3.73-1.42,4.18-3.31h11.38
						l6.3-6.3h14.14l9.56-9.56V76.04l15.69-15.7V41.57H359.34z M300.09,131.42c-1.28,0-2.32-1.04-2.32-2.31
						c0-1.28,1.04-2.32,2.32-2.32c1.27,0,2.31,1.04,2.31,2.32C302.4,130.38,301.36,131.42,300.09,131.42z"/>
				</g>
			</g>
			<g>
				<g>
					<path class="st1" d="M365.43,41.57v19.57L347.7,78.86v37.64l-10.65,10.65h-14.88l-4.8,4.8c-0.72-0.55-1.61-0.89-2.59-0.89
						c-2.38,0-4.31,1.93-4.31,4.31s1.93,4.31,4.31,4.31s4.31-1.93,4.31-4.31c0-0.67-0.17-1.3-0.44-1.87l4.35-4.35h14.88l11.82-11.82
						V79.69l17.73-17.73V41.57H365.43z M314.78,137.68c-1.27,0-2.31-1.03-2.31-2.31c0-1.27,1.04-2.31,2.31-2.31
						c1.28,0,2.31,1.04,2.31,2.31C317.09,136.65,316.06,137.68,314.78,137.68z"/>
				</g>
			</g>
			<g>
				<g>
					<path class="st1" d="M370.81,41.57v23.7l-16.07,16.08v37.48l-14.61,14.61h-15.2l-7.87,7.87h-12.51
						c-0.46-1.89-2.15-3.31-4.19-3.31c-2.38,0-4.31,1.93-4.31,4.31s1.93,4.31,4.31,4.31c2.04,0,3.73-1.41,4.19-3.31h13.34l7.87-7.87
						h15.2l15.78-15.78V82.18l16.07-16.08V41.57H370.81z M300.36,144.62c-1.27,0-2.31-1.03-2.31-2.31c0-1.27,1.04-2.31,2.31-2.31
						c1.28,0,2.32,1.04,2.32,2.31C302.68,143.59,301.64,144.62,300.36,144.62z"/>
				</g>
			</g>
			<g>
				<g>
					<path class="st1" d="M362.45,105.08c-2.38,0-4.31,1.93-4.31,4.31c0,2.03,1.42,3.73,3.31,4.19v34.43l-14.47,14.48h-19.27
						l-11.54-11.55h-11.54c-0.45-1.89-2.15-3.31-4.18-3.31c-2.38,0-4.32,1.94-4.32,4.31c0,2.38,1.94,4.32,4.32,4.32
						c2.03,0,3.73-1.42,4.18-3.32h10.71l11.55,11.55h20.92l15.64-15.65v-35.26c1.9-0.46,3.32-2.16,3.32-4.19
						C366.77,107.01,364.83,105.08,362.45,105.08z M300.45,154.26c-1.28,0-2.32-1.04-2.32-2.32c0-1.27,1.04-2.31,2.32-2.31
						c1.27,0,2.31,1.04,2.31,2.31C302.76,153.22,301.72,154.26,300.45,154.26z M362.45,111.7c-1.27,0-2.31-1.03-2.31-2.31
						c0-1.27,1.04-2.31,2.31-2.31c1.28,0,2.32,1.04,2.32,2.31C364.77,110.67,363.73,111.7,362.45,111.7z"/>
				</g>
			</g>
			<g>
				<g>
					<path class="st1" d="M336.13,138.16c-5.91,0-10.73,4.81-10.73,10.73c0,5.91,4.82,10.72,10.73,10.72
						c5.92,0,10.73-4.81,10.73-10.72C346.86,142.97,342.05,138.16,336.13,138.16z M336.13,157.61c-4.81,0-8.73-3.91-8.73-8.72
						s3.92-8.73,8.73-8.73s8.73,3.92,8.73,8.73S340.94,157.61,336.13,157.61z"/>
				</g>
			</g>
			<g>
				<g>
					<path class="st1" d="M336.13,143.6c-2.92,0-5.29,2.37-5.29,5.29s2.37,5.29,5.29,5.29c2.92,0,5.29-2.37,5.29-5.29
						S339.05,143.6,336.13,143.6z M336.13,152.18c-1.81,0-3.29-1.48-3.29-3.29c0-1.82,1.48-3.29,3.29-3.29
						c1.82,0,3.29,1.47,3.29,3.29C339.42,150.7,337.95,152.18,336.13,152.18z"/>
				</g>
			</g>
			<g>
				<g>
					<path class="st1" d="M388.26,60.14c-5.92,0-10.73,4.81-10.73,10.72c0,1.99,0.55,3.84,1.5,5.44l-9.49,9.48v67.88l-21.3,21.3
						H324.7l-13.55-13.54H290.3v-9.48h-2v9.48h-5.13v-9.48h-2v9.48h-5.13v-9.48h-2v9.48h-5.13v-9.48h-2v9.48h-5.13v-9.48h-2v9.48
						h-5.12v-9.48h-2v9.48h-5.13v-9.48h-2v9.48h-5.13v-9.48h-2v9.48h-23.21l-38.67,38.67l3.54,3.53l37.2-37.2h91.81l13.55,13.54
						h27.69l24.23-24.23V87.85l7.96-7.95c1.66,1.06,3.64,1.69,5.76,1.69c5.91,0,10.73-4.81,10.73-10.73
						C398.99,64.95,394.17,60.14,388.26,60.14z M388.26,79.59c-4.81,0-8.73-3.91-8.73-8.73c0-4.81,3.92-8.72,8.73-8.72
						s8.73,3.91,8.73,8.72C396.99,75.68,393.07,79.59,388.26,79.59z"/>
				</g>
			</g>
			<g>
				<g>
					<path class="st1" d="M388.26,65.57c-2.92,0-5.29,2.38-5.29,5.29c0,2.92,2.37,5.3,5.29,5.3s5.29-2.38,5.29-5.3
						C393.55,67.95,391.18,65.57,388.26,65.57z M388.26,74.16c-1.82,0-3.29-1.48-3.29-3.3c0-1.81,1.47-3.29,3.29-3.29
						c1.81,0,3.29,1.48,3.29,3.29C391.55,72.68,390.07,74.16,388.26,74.16z"/>
				</g>
			</g>
			<g>
				<g>
					<path class="st1" d="M272.6,85.76v7.19h-17.87l-9.91,9.91h-28.11v-5.2H200.8v12.91h15.91v-5.71h28.93l9.91-9.91h17.05v15.2
						h6.85V85.76H272.6z M214.71,108.57H202.8v-8.91h11.91V108.57z"/>
				</g>
			</g>
			<g>
				<g>
					<path class="st1" d="M328.08,110.07V97.53l-26.99-26.99v-7.25c1.89-0.45,3.31-2.15,3.31-4.18c0-2.38-1.93-4.32-4.31-4.32
						s-4.32,1.94-4.32,4.32c0,2.03,1.42,3.73,3.32,4.18v8.08l26.99,26.99v11.71h-9.63V97.53l-26.57-26.57v-7.69
						c1.86-0.48,3.25-2.15,3.25-4.16c0-2.38-1.94-4.32-4.32-4.32s-4.31,1.94-4.31,4.32c0,2.05,1.45,3.77,3.38,4.2v8.47l26.57,26.58
						v11.71h-8.92V97.53l-26.99-26.99v-7.25c1.89-0.45,3.31-2.15,3.31-4.18c0-2.38-1.93-4.32-4.31-4.32s-4.31,1.94-4.31,4.32
						c0,2.03,1.41,3.73,3.31,4.18v8.08l26.99,26.99v11.71h-3.47v5h30.64v-5H328.08z M297.77,59.11c0-1.28,1.04-2.32,2.32-2.32
						c1.27,0,2.31,1.04,2.31,2.32c0,1.27-1.04,2.31-2.31,2.31C298.81,61.42,297.77,60.38,297.77,59.11z M286.5,59.11
						c0-1.28,1.04-2.32,2.31-2.32c1.28,0,2.32,1.04,2.32,2.32c0,1.27-1.04,2.31-2.32,2.31C287.54,61.42,286.5,60.38,286.5,59.11z
						 M275.23,59.11c0-1.28,1.03-2.32,2.31-2.32c1.27,0,2.31,1.04,2.31,2.32c0,1.27-1.04,2.31-2.31,2.31
						C276.26,61.42,275.23,60.38,275.23,59.11z"/>
				</g>
			</g>
			<g>
				<g>
					<path class="st1" d="M388.84,97.53v62.18l-32.58,32.58h-17.92c-0.46-1.89-2.15-3.31-4.19-3.31c-2.37,0-4.31,1.93-4.31,4.31
						c0,2.38,1.94,4.31,4.31,4.31c2.04,0,3.73-1.41,4.19-3.31h18.75l33.75-33.75V98.36L400,89.2v-2.83L388.84,97.53z M334.15,195.6
						c-1.27,0-2.31-1.03-2.31-2.31c0-1.27,1.04-2.31,2.31-2.31c1.28,0,2.32,1.04,2.32,2.31C336.47,194.57,335.43,195.6,334.15,195.6
						z"/>
				</g>
			</g>
			<g>
				<g>
					<path class="st1" d="M383.79,94.66v62.73l-29.1,29.11h-35.43l-12.89-12.89h-89.73l-33.72,33.72c-0.68-0.45-1.49-0.72-2.37-0.72
						c-2.38,0-4.31,1.93-4.31,4.31s1.93,4.32,4.31,4.32c2.38,0,4.32-1.94,4.32-4.32c0-0.77-0.23-1.49-0.59-2.12l33.19-33.19h88.07
						l12.89,12.89h37.08l30.28-30.28V95.49L400,81.28v-2.83L383.79,94.66z M180.55,213.24c-1.27,0-2.31-1.04-2.31-2.32
						c0-1.27,1.04-2.31,2.31-2.31c1.28,0,2.32,1.04,2.32,2.31C182.87,212.2,181.83,213.24,180.55,213.24z"/>
				</g>
			</g>
			<g>
				<g>
					<path class="st1" d="M279.79,201.98c-2.03,0-3.73,1.42-4.18,3.32H235l-10.25-10.25c0.42-0.67,0.67-1.45,0.67-2.3
						c0-2.37-1.93-4.31-4.31-4.31c-2.38,0-4.31,1.94-4.31,4.31c0,2.38,1.93,4.32,4.31,4.32c0.81,0,1.56-0.24,2.2-0.63l10.86,10.86
						h41.44c0.45,1.89,2.15,3.31,4.18,3.31c2.38,0,4.31-1.93,4.31-4.31S282.17,201.98,279.79,201.98z M221.11,195.07
						c-1.27,0-2.31-1.04-2.31-2.32c0-1.27,1.04-2.31,2.31-2.31c1.28,0,2.31,1.04,2.31,2.31
						C223.42,194.03,222.39,195.07,221.11,195.07z M279.79,208.61c-1.27,0-2.31-1.04-2.31-2.31c0-1.28,1.04-2.32,2.31-2.32
						c1.28,0,2.31,1.04,2.31,2.32C282.1,207.57,281.07,208.61,279.79,208.61z"/>
				</g>
			</g>
			<g>
				<g>
					<path class="st1" d="M391.04,181.81c-2.38,0-4.31,1.94-4.31,4.32c0,2.03,1.41,3.73,3.31,4.18v34.66l-15,15v43.65h2V240.8
						l15-15.01v-35.48c1.9-0.45,3.31-2.15,3.31-4.18C395.35,183.75,393.42,181.81,391.04,181.81z M391.04,188.44
						c-1.28,0-2.31-1.04-2.31-2.31c0-1.28,1.03-2.32,2.31-2.32c1.28,0,2.31,1.04,2.31,2.32
						C393.35,187.4,392.32,188.44,391.04,188.44z"/>
				</g>
			</g>
			<g>
				<g>
					<path class="st1" d="M384.07,244.85v46.37l-14.2,14.19v37.78c-1.89,0.46-3.31,2.16-3.31,4.19c0,2.38,1.94,4.31,4.31,4.31
						c2.38,0,4.32-1.93,4.32-4.31c0-2.03-1.42-3.73-3.32-4.19v-36.95l14.2-14.19v-46.37L400,231.74v-2.82L384.07,244.85z
						 M373.19,347.38c0,1.27-1.04,2.31-2.32,2.31c-1.27,0-2.31-1.04-2.31-2.31c0-1.28,1.04-2.31,2.31-2.31
						C372.15,345.07,373.19,346.1,373.19,347.38z"/>
				</g>
			</g>
			<g>
				<g>
					<path class="st1" d="M7.72,40.54c-2.38,0-4.31,1.94-4.31,4.32c0,2.03,1.42,3.73,3.31,4.18v22.69L0,78.45v2.83l8.72-8.72V49.04
						c1.9-0.45,3.31-2.15,3.31-4.18C12.03,42.48,10.1,40.54,7.72,40.54z M7.72,47.17c-1.27,0-2.31-1.04-2.31-2.31
						c0-1.28,1.04-2.32,2.31-2.32c1.28,0,2.31,1.04,2.31,2.32C10.03,46.13,9,47.17,7.72,47.17z"/>
				</g>
			</g>
			<g>
				<g>
					<path class="st1" d="M16.6,51.02c-2.38,0-4.32,1.93-4.32,4.31c0,2.03,1.42,3.73,3.32,4.19v11.25L0,86.37v2.83l17.6-17.6V59.52
						c1.89-0.46,3.31-2.16,3.31-4.19C20.91,52.95,18.98,51.02,16.6,51.02z M16.6,57.65c-1.28,0-2.32-1.04-2.32-2.32
						c0-1.27,1.04-2.31,2.32-2.31c1.27,0,2.31,1.04,2.31,2.31C18.91,56.61,17.87,57.65,16.6,57.65z"/>
				</g>
			</g>
			<g>
				<g>
					<path class="st1" d="M18.07,143.05c-2.38,0-4.31,1.94-4.31,4.31c0,2.04,1.42,3.73,3.31,4.19v70.62L0,239.24v2.83L19.07,223
						v-71.45c1.9-0.46,3.32-2.15,3.32-4.19C22.39,144.99,20.45,143.05,18.07,143.05z M18.07,149.68c-1.27,0-2.31-1.04-2.31-2.32
						c0-1.27,1.04-2.31,2.31-2.31c1.28,0,2.32,1.04,2.32,2.31C20.39,148.64,19.35,149.68,18.07,149.68z"/>
				</g>
			</g>
			<g>
				<g>
					<path class="st1" d="M11.22,152.68c-2.38,0-4.31,1.93-4.31,4.31c0,2.03,1.42,3.73,3.31,4.18v57.53L0,228.92v2.82l12.22-12.22
						v-58.35c1.9-0.45,3.32-2.15,3.32-4.18C15.54,154.61,13.6,152.68,11.22,152.68z M11.22,159.3c-1.27,0-2.31-1.03-2.31-2.31
						c0-1.28,1.04-2.31,2.31-2.31c1.28,0,2.32,1.03,2.32,2.31C13.54,158.27,12.5,159.3,11.22,159.3z"/>
				</g>
			</g>
			<g>
				<g>
					<path class="st1" d="M391.46,247.79v47.61l-12.36,12.35v48.85c-1.9,0.45-3.33,2.15-3.33,4.19c0,2.38,1.94,4.31,4.32,4.31
						c2.37,0,4.31-1.93,4.31-4.31c0-2.03-1.41-3.72-3.3-4.18v-48.03l12.36-12.36v-47.61l6.54-6.54v-2.82L391.46,247.79z
						 M382.4,360.79c0,1.27-1.04,2.31-2.31,2.31c-1.28,0-2.32-1.04-2.32-2.31c0-1.28,1.04-2.31,2.32-2.31
						C381.36,358.48,382.4,359.51,382.4,360.79z"/>
				</g>
			</g>
			<g>
				<g>
					<path class="st1" d="M253.37,54.44v1.47h-92.79L146.2,70.29v50.76l-4.51,4.51v8.09c-1.9,0.45-3.32,2.15-3.32,4.18
						c0,2.38,1.94,4.32,4.32,4.32s4.31-1.94,4.31-4.32c0-2.03-1.42-3.73-3.31-4.18v-7.26l4.51-4.51V71.12l13.21-13.21h91.96v2.35
						H163.8l-13.57,13.56v49.82c-1.89,0.46-3.31,2.15-3.31,4.19c0,2.37,1.93,4.31,4.31,4.31s4.32-1.94,4.32-4.31
						c0-2.04-1.42-3.73-3.32-4.19V74.65l12.4-12.39h88.74v2.8h-86.25l-12.35,12.35v44.09l5.12,5.12v6.32
						c-1.86,0.48-3.24,2.16-3.24,4.16c0,2.38,1.94,4.32,4.31,4.32c2.38,0,4.32-1.94,4.32-4.32c0-2.06-1.46-3.78-3.39-4.2v-7.11
						l-5.12-5.12V78.24l11.18-11.18h85.42v1.71h14.33V54.44H253.37z M145,137.83c0,1.28-1.04,2.32-2.31,2.32
						c-1.28,0-2.32-1.04-2.32-2.32c0-1.27,1.04-2.31,2.32-2.31C143.96,135.52,145,136.56,145,137.83z M153.55,127.83
						c0,1.27-1.04,2.31-2.32,2.31c-1.27,0-2.31-1.04-2.31-2.31c0-1.28,1.04-2.32,2.31-2.32
						C152.51,125.51,153.55,126.55,153.55,127.83z M163.28,137.1c0,1.28-1.04,2.32-2.32,2.32c-1.27,0-2.31-1.04-2.31-2.32
						c0-1.27,1.04-2.31,2.31-2.31C162.24,134.79,163.28,135.83,163.28,137.1z"/>
				</g>
			</g>
			<g>
				<g>
					<path class="st1" d="M253.37,17.46v6.64H233.8l-5.16-5.17h-22c-0.45-1.89-2.15-3.31-4.18-3.31c-2.38,0-4.32,1.94-4.32,4.31
						c0,2.38,1.94,4.32,4.32,4.32c2.03,0,3.73-1.42,4.18-3.32h21.17l5.17,5.17h20.39v5.69h14.33V17.46H253.37z M202.46,22.25
						c-1.28,0-2.32-1.04-2.32-2.32c0-1.27,1.04-2.31,2.32-2.31c1.27,0,2.31,1.04,2.31,2.31C204.77,21.21,203.73,22.25,202.46,22.25z
						"/>
				</g>
			</g>
			<g>
				<g>
					<path class="st1" d="M253.37,35.95v0.63h-45.81l-7.3-7.3h-11.2l-4.68-4.69h-13.99c-0.45-1.9-2.15-3.31-4.18-3.31
						c-2.38,0-4.32,1.93-4.32,4.31s1.94,4.31,4.32,4.31c2.03,0,3.73-1.41,4.18-3.31h13.16l4.69,4.69h11.19l7.3,7.3h46.64v3.53
						h-47.38l-6.56-6.55h-16.8c-0.45-1.9-2.15-3.32-4.18-3.32c-2.38,0-4.32,1.94-4.32,4.32c0,2.37,1.94,4.31,4.32,4.31
						c2.03,0,3.73-1.42,4.18-3.31h15.98l6.55,6.55h48.21v3.64h-49.69l-6.22-6.23h-11.43l-6.15,6.14h-12.04
						c-0.48-1.85-2.16-3.23-4.16-3.23c-2.38,0-4.31,1.94-4.31,4.32c0,2.37,1.93,4.31,4.31,4.31c2.06,0,3.79-1.46,4.21-3.4h12.82
						l6.15-6.14h9.77l6.23,6.23h50.51v0.53h14.33V35.95H253.37z M166.21,27.9c-1.28,0-2.32-1.03-2.32-2.31
						c0-1.28,1.04-2.31,2.32-2.31c1.27,0,2.31,1.03,2.31,2.31C168.52,26.87,167.48,27.9,166.21,27.9z M178.45,38.87
						c-1.28,0-2.32-1.04-2.32-2.31c0-1.28,1.04-2.32,2.32-2.32c1.27,0,2.31,1.04,2.31,2.32C180.76,37.83,179.72,38.87,178.45,38.87z
						 M163.68,51.06c-1.27,0-2.31-1.04-2.31-2.31c0-1.28,1.04-2.32,2.31-2.32c1.28,0,2.31,1.04,2.31,2.32
						C165.99,50.02,164.96,51.06,163.68,51.06z"/>
				</g>
			</g>
			<g>
				<g>
					<path class="st1" d="M301.45,203.17c-0.73,0-1.42,0.2-2.02,0.53l-14.13-14.13h-44.03c-0.45-1.9-2.15-3.31-4.18-3.31
						c-2.38,0-4.32,1.93-4.32,4.31s1.94,4.31,4.32,4.31c2.03,0,3.73-1.41,4.18-3.31h43.21l13.44,13.44
						c-0.49,0.71-0.79,1.55-0.79,2.47c0,2.38,1.94,4.32,4.32,4.32s4.31-1.94,4.31-4.32C305.76,205.11,303.83,203.17,301.45,203.17z
						 M237.09,192.88c-1.28,0-2.32-1.03-2.32-2.31s1.04-2.31,2.32-2.31c1.27,0,2.31,1.03,2.31,2.31S238.36,192.88,237.09,192.88z
						 M301.45,209.8c-1.28,0-2.32-1.04-2.32-2.32c0-1.27,1.04-2.31,2.32-2.31c1.27,0,2.31,1.04,2.31,2.31
						C303.76,208.76,302.72,209.8,301.45,209.8z"/>
				</g>
			</g>
			<g>
				<g>
					<path class="st1" d="M240.13,341.07c-9.52,0-17.26,7.74-17.26,17.26s7.74,17.26,17.26,17.26c9.52,0,17.26-7.74,17.26-17.26
						S249.65,341.07,240.13,341.07z M240.13,373.59c-8.42,0-15.26-6.84-15.26-15.26s6.84-15.26,15.26-15.26
						c8.42,0,15.26,6.84,15.26,15.26S248.55,373.59,240.13,373.59z"/>
				</g>
			</g>
			<g>
				<g>
					<path class="st1" d="M240.13,350.15c-4.51,0-8.19,3.67-8.19,8.19c0,4.5,3.67,8.18,8.19,8.18c4.51,0,8.18-3.67,8.18-8.18
						C248.31,353.82,244.65,350.15,240.13,350.15z M240.13,364.51c-3.41,0-6.18-2.77-6.18-6.17c0-3.41,2.77-6.18,6.18-6.18
						c3.4,0,6.17,2.77,6.17,6.18C246.31,361.74,243.54,364.51,240.13,364.51z"/>
				</g>
			</g>
			<g>
				<g>
					<path class="st1" d="M151.17,144.15c-9.52,0-17.26,7.75-17.26,17.27c0,9.51,7.74,17.26,17.26,17.26
						c9.52,0,17.26-7.75,17.26-17.26C168.43,151.9,160.69,144.15,151.17,144.15z M151.17,176.68c-8.42,0-15.26-6.85-15.26-15.26
						c0-8.42,6.84-15.27,15.26-15.27c8.41,0,15.26,6.85,15.26,15.27C166.43,169.83,159.58,176.68,151.17,176.68z"/>
				</g>
			</g>
			<g>
				<g>
					<path class="st1" d="M151.17,153.24c-4.51,0-8.18,3.67-8.18,8.18c0,4.5,3.67,8.17,8.18,8.17c4.51,0,8.17-3.67,8.17-8.17
						C159.34,156.91,155.68,153.24,151.17,153.24z M151.17,167.59c-3.41,0-6.18-2.77-6.18-6.17c0-3.41,2.77-6.18,6.18-6.18
						c3.4,0,6.17,2.77,6.17,6.18C157.34,164.82,154.57,167.59,151.17,167.59z"/>
				</g>
			</g>
			<g>
				<g>
					<path class="st1" d="M344.46,261.1v-38.99c1.89-0.46,3.31-2.15,3.31-4.19c0-2.38-1.93-4.31-4.31-4.31s-4.31,1.93-4.31,4.31
						c0,2.04,1.41,3.73,3.31,4.19v39.81l11.62,11.63v33.12h2v-33.95L344.46,261.1z M341.15,217.92c0-1.27,1.03-2.31,2.31-2.31
						c1.27,0,2.31,1.04,2.31,2.31c0,1.28-1.04,2.32-2.31,2.32C342.18,220.24,341.15,219.2,341.15,217.92z"/>
				</g>
			</g>
			<g>
				<g>
					<path class="st1" d="M364.09,214.65v-9.27c1.85-0.48,3.24-2.16,3.24-4.16c0-2.38-1.94-4.32-4.32-4.32
						c-2.37,0-4.31,1.94-4.31,4.32c0,2.05,1.45,3.78,3.39,4.2v8.41l-10.59,10.58v29.92l11.49,11.49v31.28h2v-32.11L353.5,253.5
						v-28.26L364.09,214.65z M360.7,201.22c0-1.28,1.04-2.32,2.31-2.32c1.28,0,2.32,1.04,2.32,2.32c0,1.27-1.04,2.31-2.32,2.31
						C361.74,203.53,360.7,202.49,360.7,201.22z"/>
				</g>
			</g>
			<g>
				<g>
					<path class="st1" d="M342.65,370.16l-12.12-12.13v-62.42c1.89-0.45,3.31-2.15,3.31-4.18c0-2.38-1.93-4.31-4.31-4.31
						s-4.32,1.93-4.32,4.31c0,2.03,1.42,3.73,3.32,4.18v63.25l12.12,12.12v3.35l-6.98,6.98c-0.68-0.43-1.48-0.69-2.34-0.69
						c-2.38,0-4.31,1.93-4.31,4.31s1.93,4.31,4.31,4.31s4.32-1.93,4.32-4.31c0-0.79-0.23-1.53-0.61-2.16l7.61-7.61V370.16z
						 M327.21,291.43c0-1.28,1.04-2.31,2.32-2.31c1.27,0,2.31,1.03,2.31,2.31c0,1.27-1.04,2.31-2.31,2.31
						C328.25,293.74,327.21,292.7,327.21,291.43z M331.33,387.24c-1.27,0-2.31-1.04-2.31-2.31c0-1.28,1.04-2.31,2.31-2.31
						c1.28,0,2.32,1.03,2.32,2.31C333.65,386.2,332.61,387.24,331.33,387.24z"/>
				</g>
			</g>
			<g>
				<g>
					<path class="st1" d="M323.4,210c-2.38,0-4.31,1.94-4.31,4.31c0,2.04,1.42,3.73,3.31,4.19v70.62l-25.61,25.62v47.61
						l-12.36,12.35V400h2v-24.47l12.36-12.36v-47.61l25.61-25.61V218.5c1.9-0.46,3.31-2.15,3.31-4.19
						C327.71,211.94,325.78,210,323.4,210z M323.4,216.63c-1.27,0-2.31-1.04-2.31-2.32c0-1.27,1.04-2.31,2.31-2.31
						c1.28,0,2.31,1.04,2.31,2.31C325.71,215.59,324.68,216.63,323.4,216.63z"/>
				</g>
			</g>
			<g>
				<g>
					<path class="st1" d="M322.4,302.09c-2.38,0-4.31,1.94-4.31,4.32c0,2.03,1.42,3.73,3.31,4.18v6.29l-3.4,3.39v27.15l-4.36-4.36
						v-25.32c1.9-0.45,3.32-2.15,3.32-4.18c0-2.38-1.94-4.31-4.32-4.31c-2.37,0-4.31,1.93-4.31,4.31c0,2.03,1.42,3.73,3.31,4.18
						v26.15l6.36,6.36v18.66c-1.89,0.46-3.31,2.15-3.31,4.19c0,2.38,1.93,4.31,4.31,4.31s4.32-1.93,4.32-4.31
						c0-2.04-1.42-3.73-3.32-4.19V321.1l3.4-3.4v-7.11c1.9-0.45,3.31-2.15,3.31-4.18C326.71,304.03,324.78,302.09,322.4,302.09z
						 M310.33,313.56c0-1.28,1.04-2.31,2.31-2.31c1.28,0,2.32,1.03,2.32,2.31c0,1.28-1.04,2.31-2.32,2.31
						C311.37,315.87,310.33,314.84,310.33,313.56z M321.32,373.1c0,1.27-1.04,2.31-2.32,2.31c-1.27,0-2.31-1.04-2.31-2.31
						c0-1.28,1.04-2.32,2.31-2.32C320.28,370.78,321.32,371.82,321.32,373.1z M322.4,308.72c-1.27,0-2.31-1.04-2.31-2.31
						c0-1.28,1.04-2.32,2.31-2.32c1.28,0,2.31,1.04,2.31,2.32C324.71,307.68,323.68,308.72,322.4,308.72z"/>
				</g>
			</g>
			<g>
				<g>
					<path class="st1" d="M350.29,377.43v-8.01l-13.52-13.52v-54.61h-2v55.44l13.52,13.52v7.18c-1.9,0.45-3.31,2.15-3.31,4.19
						c0,2.37,1.93,4.31,4.31,4.31s4.31-1.94,4.31-4.31C353.6,379.58,352.18,377.88,350.29,377.43z M349.29,383.93
						c-1.28,0-2.31-1.04-2.31-2.31c0-1.28,1.03-2.32,2.31-2.32c1.27,0,2.31,1.04,2.31,2.32
						C351.6,382.89,350.56,383.93,349.29,383.93z"/>
				</g>
			</g>
			<g>
				<g>
					<path class="st1" d="M316.55,219.63c-2.38,0-4.31,1.93-4.31,4.31c0,2.03,1.42,3.73,3.31,4.18v57.53L289.4,311.8v46.37
						l-14.2,14.19V400h2v-26.81L291.4,359v-46.37l26.15-26.16v-58.35c1.9-0.45,3.31-2.15,3.31-4.18
						C320.86,221.56,318.93,219.63,316.55,219.63z M316.55,226.25c-1.27,0-2.31-1.03-2.31-2.31c0-1.28,1.04-2.31,2.31-2.31
						c1.28,0,2.31,1.03,2.31,2.31C318.86,225.22,317.83,226.25,316.55,226.25z"/>
				</g>
			</g>
			<g>
				<g>
					<path class="st1" d="M364.55,383.39v-19.33l-17.27-17.27v-68.37l-12.05-12.05v-47.94h-5v50.01l12.05,12.05v68.37l17.27,17.27
						v17.26c-6.12,1.17-10.76,6.56-10.76,13.02c0,1.24,0.17,2.45,0.5,3.59h2.09c-0.38-1.13-0.59-2.33-0.59-3.59
						c0-6.21,5.05-11.26,11.26-11.26c6.21,0,11.26,5.05,11.26,11.26c0,1.26-0.21,2.46-0.59,3.59h2.09c0.33-1.14,0.5-2.35,0.5-3.59
						C375.31,389.95,370.67,384.56,364.55,383.39z"/>
				</g>
			</g>
			<g>
				<g>
					<path class="st1" d="M362.05,390c-3.53,0-6.41,2.87-6.41,6.41c0,1.33,0.41,2.57,1.11,3.59h2.75c-1.12-0.8-1.86-2.11-1.86-3.59
						c0-2.44,1.98-4.41,4.41-4.41c2.43,0,4.41,1.97,4.41,4.41c0,1.48-0.74,2.79-1.86,3.59h2.75c0.7-1.02,1.11-2.26,1.11-3.59
						C368.46,392.87,365.58,390,362.05,390z"/>
				</g>
			</g>
			<g>
				<g>
					<path class="st1" d="M286.43,23.56V0h-2v23.55c-1.9,0.45-3.33,2.15-3.33,4.19c0,2.38,1.94,4.31,4.32,4.31
						c2.37,0,4.31-1.93,4.31-4.31C289.73,25.71,288.32,24.02,286.43,23.56z M285.42,30.05c-1.28,0-2.32-1.04-2.32-2.31
						c0-1.28,1.04-2.31,2.32-2.31c1.27,0,2.31,1.03,2.31,2.31C287.73,29.01,286.69,30.05,285.42,30.05z"/>
				</g>
			</g>
			<g>
				<g>
					<path class="st1" d="M277.2,10.14V0h-2v10.14c-1.89,0.46-3.31,2.16-3.31,4.19c0,2.38,1.93,4.31,4.31,4.31s4.32-1.93,4.32-4.31
						C280.52,12.3,279.1,10.6,277.2,10.14z M276.2,16.64c-1.27,0-2.31-1.04-2.31-2.31c0-1.28,1.04-2.31,2.31-2.31
						c1.28,0,2.32,1.03,2.32,2.31C278.52,15.6,277.48,16.64,276.2,16.64z"/>
				</g>
			</g>
			<g>
				<g>
					<path class="st1" d="M372.72,0c-1.5,4.45-5.72,7.66-10.67,7.66c-4.95,0-9.17-3.21-10.67-7.66h-2.09
						c1.56,5.57,6.69,9.66,12.76,9.66c6.07,0,11.2-4.09,12.76-9.66H372.72z"/>
				</g>
			</g>
			<g>
				<g>
					<path class="st1" d="M364.6,0c-0.72,0.51-1.61,0.81-2.55,0.81c-0.94,0-1.83-0.3-2.55-0.81h-2.75c1.15,1.69,3.1,2.81,5.3,2.81
						c2.2,0,4.15-1.12,5.3-2.81H364.6z"/>
				</g>
			</g>
			<g>
				<g>
					<path class="st1" d="M114.34,189.94v49.28h49.28v-49.28H114.34z M161.62,237.22h-45.28v-45.28h45.28V237.22z"/>
				</g>
			</g>
			<g>
				<g>
					<path class="st1" d="M123.61,199.21v30.74h30.74v-30.74H123.61z M152.35,227.95h-26.74v-26.74h26.74V227.95z"/>
				</g>
			</g>
			<g>
				<g>
					<path class="st1" d="M266.77,354.1c0.49-0.73,0.77-1.6,0.77-2.55c0-2.54-2.07-4.61-4.61-4.61c-2.55,0-4.62,2.07-4.62,4.61
						c0,2.55,2.07,4.62,4.62,4.62c0.88,0,1.69-0.26,2.39-0.69l3.65,3.65v23.67l-6.01,6.01h-60.24c-0.46-2.06-2.3-3.61-4.5-3.61
						c-2.55,0-4.62,2.07-4.62,4.61c0,2.55,2.07,4.62,4.62,4.62c2.2,0,4.04-1.56,4.5-3.62h61.07l7.18-7.18V358.3L266.77,354.1z
						 M262.93,354.17c-1.44,0-2.62-1.18-2.62-2.62s1.18-2.61,2.62-2.61s2.61,1.17,2.61,2.61S264.37,354.17,262.93,354.17z
						 M198.22,392.43c-1.44,0-2.62-1.18-2.62-2.62s1.18-2.61,2.62-2.61s2.61,1.17,2.61,2.61S199.66,392.43,198.22,392.43z"/>
				</g>
			</g>
			<g>
				<g>
					<path class="st1" d="M225.84,375.99c-0.9,0-1.73,0.26-2.44,0.71l-5.91-5.91v-31.41l-4.96-4.95v-47.07l10.88-10.88v-11.33
						c2.02-0.5,3.52-2.31,3.52-4.47c0-2.55-2.07-4.62-4.61-4.62c-2.55,0-4.62,2.07-4.62,4.62c0,2.23,1.6,4.1,3.71,4.52v10.45
						l-10.88,10.88v48.72l4.96,4.96v31.4l6.48,6.49c-0.46,0.72-0.74,1.58-0.74,2.5c0,2.54,2.07,4.61,4.61,4.61
						c2.55,0,4.62-2.07,4.62-4.61C230.46,378.06,228.39,375.99,225.84,375.99z M219.7,260.68c0-1.44,1.18-2.62,2.62-2.62
						s2.61,1.18,2.61,2.62s-1.17,2.61-2.61,2.61S219.7,262.12,219.7,260.68z M225.84,383.21c-1.44,0-2.61-1.17-2.61-2.61
						c0-1.44,1.17-2.61,2.61-2.61s2.62,1.17,2.62,2.61C228.46,382.04,227.28,383.21,225.84,383.21z"/>
				</g>
			</g>
			<g>
				<g>
					<path class="st1" d="M212.4,374.31v-29.76l-6.9-6.91v-58.32l8.08-8.08v-11.48c2.06-0.46,3.61-2.3,3.61-4.5
						c0-2.55-2.07-4.62-4.61-4.62c-2.55,0-4.62,2.07-4.62,4.62c0,2.2,1.55,4.04,3.62,4.5v10.65l-8.08,8.09v59.97l6.9,6.91v29
						c-1.99,0.51-3.48,2.31-3.48,4.46c0,2.54,2.07,4.62,4.61,4.62c2.55,0,4.62-2.08,4.62-4.62
						C216.15,376.59,214.53,374.72,212.4,374.31z M209.96,255.26c0-1.44,1.18-2.62,2.62-2.62s2.61,1.18,2.61,2.62
						s-1.17,2.61-2.61,2.61S209.96,256.7,209.96,255.26z M211.53,381.46c-1.44,0-2.61-1.18-2.61-2.62s1.17-2.61,2.61-2.61
						c1.45,0,2.62,1.17,2.62,2.61S212.98,381.46,211.53,381.46z"/>
				</g>
			</g>
			<g>
				<g>
					<path class="st1" d="M124.88,175.94v-29.77l-6.9-6.9V80.95l8.08-8.09V61.38c2.06-0.46,3.61-2.3,3.61-4.5
						c0-2.54-2.07-4.61-4.61-4.61c-2.54,0-4.61,2.07-4.61,4.61c0,2.2,1.55,4.04,3.61,4.5v10.66l-8.08,8.08v59.97l6.9,6.91v29.01
						c-1.99,0.5-3.48,2.3-3.48,4.45c0,2.55,2.07,4.62,4.62,4.62c2.54,0,4.61-2.07,4.61-4.62
						C128.63,178.21,127.01,176.34,124.88,175.94z M122.45,56.88c0-1.44,1.17-2.61,2.61-2.61s2.61,1.17,2.61,2.61
						s-1.17,2.61-2.61,2.61S122.45,58.32,122.45,56.88z M124.02,183.08c-1.45,0-2.62-1.18-2.62-2.62s1.17-2.61,2.62-2.61
						c1.44,0,2.61,1.17,2.61,2.61S125.46,183.08,124.02,183.08z"/>
				</g>
			</g>
			<g>
				<g>
					<path class="st1" d="M138.32,177.61c-0.89,0-1.73,0.27-2.43,0.71l-5.92-5.91V141l-4.95-4.95V88.98L135.9,78.1V66.77
						c2.01-0.49,3.52-2.3,3.52-4.47c0-2.54-2.07-4.61-4.62-4.61c-2.54,0-4.61,2.07-4.61,4.61c0,2.24,1.59,4.1,3.71,4.52v10.45
						l-10.88,10.88v48.73l4.95,4.95v31.41l6.49,6.48c-0.47,0.72-0.75,1.58-0.75,2.5c0,2.55,2.07,4.62,4.61,4.62
						c2.55,0,4.62-2.07,4.62-4.62C142.94,179.68,140.87,177.61,138.32,177.61z M132.19,62.3c0-1.44,1.17-2.61,2.61-2.61
						c1.44,0,2.62,1.17,2.62,2.61s-1.18,2.62-2.62,2.62C133.36,64.92,132.19,63.74,132.19,62.3z M138.32,184.84
						c-1.44,0-2.61-1.18-2.61-2.62s1.17-2.61,2.61-2.61c1.45,0,2.62,1.17,2.62,2.61S139.77,184.84,138.32,184.84z"/>
				</g>
			</g>
			<g>
				<g>
					<path class="st1" d="M189.92,5.47V0h-2v5.4c-2.14,0.4-3.77,2.27-3.77,4.53c0,2.54,2.08,4.61,4.62,4.61s4.61-2.07,4.61-4.61
						C193.38,7.78,191.91,5.99,189.92,5.47z M188.77,12.54c-1.44,0-2.62-1.17-2.62-2.61c0-1.45,1.18-2.62,2.62-2.62
						s2.61,1.17,2.61,2.62C191.38,11.37,190.21,12.54,188.77,12.54z"/>
				</g>
			</g>
			<g>
				<g>
					<path class="st1" d="M194.37,331.27v-60.25l-9.32-8.5v-4.05h-4.38v-16.01l-5.81-5.81c0.46-0.72,0.73-1.56,0.73-2.47
						c0-2.55-2.07-4.62-4.61-4.62c-2.54,0-4.62,2.07-4.62,4.62c0,2.54,2.08,4.61,4.62,4.61c0.91,0,1.75-0.27,2.47-0.73l5.22,5.22
						v15.19h-13.7v4.17l-7.12,7.12h-31.51c-0.46-2.06-2.3-3.61-4.5-3.61c-2.54,0-4.61,2.07-4.61,4.61s2.07,4.61,4.61,4.61
						c2.2,0,4.04-1.55,4.5-3.61h32.34l6.29-6.29v6.21l-6.96,6.96h-20.76c-0.46-2.06-2.3-3.62-4.5-3.62c-2.54,0-4.61,2.07-4.61,4.62
						c0,2.54,2.07,4.61,4.61,4.61c2.2,0,4.04-1.55,4.5-3.61h21.59l6.13-6.13v6.22l-7.5,7.5h-31.14c-0.47-2.05-2.3-3.59-4.49-3.59
						c-2.54,0-4.61,2.07-4.61,4.62c0,2.54,2.07,4.61,4.61,4.61c2.21,0,4.06-1.56,4.51-3.64h31.95l6.67-6.68v6.22l-7.37,7.36h-20.35
						c-0.46-2.06-2.3-3.61-4.5-3.61c-2.54,0-4.61,2.07-4.61,4.61c0,2.55,2.07,4.62,4.61,4.62c2.2,0,4.04-1.55,4.5-3.62h21.18
						l6.54-6.53v6.21l-7.49,7.49H126.2c-0.61-1.83-2.32-3.16-4.36-3.16c-2.54,0-4.61,2.07-4.61,4.61c0,2.55,2.07,4.62,4.61,4.62
						c2.36,0,4.29-1.79,4.56-4.07h31.91l6.66-6.66v4.04h20.08v-3.25l7.32,6.67v22.16c-2.07,0.46-3.62,2.3-3.62,4.5
						c0,2.55,2.07,4.62,4.61,4.62c2.55,0,4.62-2.07,4.62-4.62C197.98,333.56,196.43,331.73,194.37,331.27z M170.98,236.79
						c-1.44,0-2.62-1.17-2.62-2.61c0-1.45,1.18-2.62,2.62-2.62s2.61,1.17,2.61,2.62C173.59,235.62,172.42,236.79,170.98,236.79z
						 M121.84,273.37c-1.44,0-2.61-1.17-2.61-2.61s1.17-2.61,2.61-2.61c1.45,0,2.62,1.17,2.62,2.61S123.29,273.37,121.84,273.37z
						 M132.75,282.25c-1.44,0-2.61-1.17-2.61-2.61s1.17-2.62,2.61-2.62c1.45,0,2.62,1.18,2.62,2.62S134.2,282.25,132.75,282.25z
						 M121.84,291.87c-1.44,0-2.61-1.17-2.61-2.61c0-1.45,1.17-2.62,2.61-2.62c1.45,0,2.62,1.17,2.62,2.62
						C124.46,290.7,123.29,291.87,121.84,291.87z M132.75,300.75c-1.44,0-2.61-1.17-2.61-2.62c0-1.44,1.17-2.61,2.61-2.61
						c1.45,0,2.62,1.17,2.62,2.61C135.37,299.58,134.2,300.75,132.75,300.75z M121.84,310.37c-1.44,0-2.61-1.18-2.61-2.62
						s1.17-2.61,2.61-2.61c1.45,0,2.62,1.17,2.62,2.61S123.29,310.37,121.84,310.37z M174.01,303.68h-7.04v-7.04h7.04V303.68z
						 M174.01,294.64h-7.04v-7.04h7.04V294.64z M174.01,285.6h-7.04v-7.05h7.04V285.6z M174.01,276.55h-7.04v-7.04h7.04V276.55z
						 M174.01,267.51h-7.04v-7.04h7.04V267.51z M183.05,303.68h-7.04v-7.04h7.04V303.68z M183.05,294.64h-7.04v-7.04h7.04V294.64z
						 M183.05,285.6h-7.04v-7.05h7.04V285.6z M183.05,276.55h-7.04v-7.04h7.04V276.55z M183.05,267.51h-7.04v-7.04h7.04V267.51z
						 M185.05,265.23l7.32,6.68v6.84l-7.32-6.67V265.23z M185.05,274.79l7.32,6.67v6.85l-7.32-6.68V274.79z M185.05,284.34
						l7.32,6.68v6.33l-7.32-6.67V284.34z M185.05,299.72v-6.34l7.32,6.68v6.34L185.05,299.72z M193.36,338.38
						c-1.44,0-2.61-1.18-2.61-2.62s1.17-2.61,2.61-2.61c1.45,0,2.62,1.17,2.62,2.61S194.81,338.38,193.36,338.38z"/>
				</g>
			</g>
			<g>
				<polygon class="st1" points="113.26,339.51 95.5,321.75 95.5,261.04 108.88,247.65 105.35,244.12 90.5,258.96 90.5,263.33 
					74.32,263.33 74.32,265.33 90.5,265.33 90.5,272.52 74.32,272.52 74.32,274.52 90.5,274.52 90.5,281.72 74.32,281.72 
					74.32,283.72 90.5,283.72 90.5,290.91 74.32,290.91 74.32,292.91 90.5,292.91 90.5,300.11 74.32,300.11 74.32,302.11 
					90.5,302.11 90.5,309.3 74.32,309.3 74.32,311.3 90.5,311.3 90.5,318.5 74.32,318.5 74.32,320.5 90.5,320.5 90.5,323.82 
					111.19,344.51 157.99,344.51 180.42,366.94 183.95,363.4 160.06,339.51 				"/>
			</g>
			<g>
				<g>
					<path class="st1" d="M149.74,319.57c-2.2,0-4.04,1.55-4.5,3.61h-22.06l-11.05-11.05v-43.07l14.36-14.36
						c0.74,0.5,1.63,0.8,2.58,0.8c2.55,0,4.62-2.07,4.62-4.62c0-2.54-2.07-4.61-4.62-4.61c-2.54,0-4.61,2.07-4.61,4.61
						c0,0.87,0.25,1.66,0.67,2.36l-15,14.99v44.73l12.22,12.22h22.89c0.46,2.06,2.3,3.62,4.5,3.62c2.54,0,4.61-2.07,4.61-4.62
						C154.35,321.64,152.28,319.57,149.74,319.57z M129.07,248.27c1.44,0,2.62,1.17,2.62,2.61s-1.18,2.62-2.62,2.62
						s-2.61-1.18-2.61-2.62S127.63,248.27,129.07,248.27z M149.74,326.8c-1.44,0-2.62-1.18-2.62-2.62s1.18-2.61,2.62-2.61
						c1.44,0,2.61,1.17,2.61,2.61S151.18,326.8,149.74,326.8z"/>
				</g>
			</g>
			<g>
				<g>
					<path class="st1" d="M171.9,386.43v-10.37l-19.1-19.1h-44.33l-23.43-23.44c0.55-0.75,0.88-1.68,0.88-2.68
						c0-2.54-2.07-4.61-4.62-4.61c-2.54,0-4.61,2.07-4.61,4.61c0,2.55,2.07,4.62,4.61,4.62c0.82,0,1.57-0.24,2.24-0.61l24.11,24.11
						h44.32l17.93,17.93v9.54c-2.06,0.46-3.61,2.3-3.61,4.5c0,2.55,2.07,4.62,4.61,4.62c2.55,0,4.62-2.07,4.62-4.62
						C175.52,388.73,173.97,386.89,171.9,386.43z M81.3,333.46c-1.44,0-2.61-1.18-2.61-2.62s1.17-2.61,2.61-2.61
						c1.45,0,2.62,1.17,2.62,2.61S82.75,333.46,81.3,333.46z M170.9,393.55c-1.44,0-2.61-1.17-2.61-2.62c0-1.44,1.17-2.61,2.61-2.61
						s2.62,1.17,2.62,2.61C173.52,392.38,172.34,393.55,170.9,393.55z"/>
				</g>
			</g>
			<g>
				<g>
					<path class="st1" d="M148.39,362.9c-2.2,0-4.04,1.55-4.5,3.62h-23.14c-0.46-2.07-2.3-3.62-4.5-3.62
						c-2.54,0-4.61,2.07-4.61,4.62c0,2.54,2.07,4.61,4.61,4.61c2.2,0,4.04-1.55,4.5-3.61h23.14c0.46,2.06,2.3,3.61,4.5,3.61
						c2.55,0,4.62-2.07,4.62-4.61C153.01,364.97,150.94,362.9,148.39,362.9z M116.25,370.13c-1.44,0-2.61-1.17-2.61-2.61
						c0-1.45,1.17-2.62,2.61-2.62s2.62,1.17,2.62,2.62C118.87,368.96,117.69,370.13,116.25,370.13z M148.39,370.13
						c-1.44,0-2.61-1.17-2.61-2.61c0-1.45,1.17-2.62,2.61-2.62s2.62,1.17,2.62,2.62C151.01,368.96,149.83,370.13,148.39,370.13z"/>
				</g>
			</g>
			<g>
				<g>
					<path class="st1" d="M185.64,348.34c0.43-0.7,0.69-1.52,0.69-2.4c0-2.54-2.07-4.61-4.61-4.61c-2.55,0-4.62,2.07-4.62,4.61
						c0,2.55,2.07,4.62,4.62,4.62c0.94,0,1.81-0.29,2.54-0.77l12.5,12.5v7.34l-8.84,8.85V400h2v-20.7l8.84-8.84v-9L185.64,348.34z
						 M181.72,348.56c-1.44,0-2.62-1.18-2.62-2.62s1.18-2.61,2.62-2.61s2.61,1.17,2.61,2.61S183.16,348.56,181.72,348.56z"/>
				</g>
			</g>
			<g>
				<g>
					<path class="st1" d="M174.1,329.84c-2.2,0-4.04,1.55-4.49,3.62h-53l-13.47-13.48v-55.59l9.66-9.66
						c0.73,0.48,1.6,0.77,2.54,0.77c2.55,0,4.62-2.07,4.62-4.62c0-2.54-2.07-4.61-4.62-4.61c-2.54,0-4.61,2.07-4.61,4.61
						c0,0.88,0.26,1.7,0.69,2.4l-10.28,10.28v57.25l14.64,14.65h53.83c0.45,2.06,2.29,3.61,4.49,3.61c2.55,0,4.62-2.07,4.62-4.61
						C178.72,331.91,176.65,329.84,174.1,329.84z M115.34,248.27c1.44,0,2.62,1.17,2.62,2.61s-1.18,2.62-2.62,2.62
						s-2.61-1.18-2.61-2.62S113.9,248.27,115.34,248.27z M174.1,337.07c-1.44,0-2.61-1.17-2.61-2.61c0-1.45,1.17-2.62,2.61-2.62
						c1.45,0,2.62,1.17,2.62,2.62C176.72,335.9,175.55,337.07,174.1,337.07z"/>
				</g>
			</g>
			<g>
				<polygon class="st1" points="127.26,0 127.26,5.37 71.37,61.26 71.37,84.8 59.48,96.68 34.34,96.68 19.75,111.27 16.21,107.74 
					32.27,91.68 57.41,91.68 66.37,82.73 66.37,59.19 122.26,3.3 122.26,0 				"/>
			</g>
			<g>
				<g>
					<path class="st1" d="M86.7,62.33c-2.38,0-4.32,1.93-4.32,4.31c0,2.03,1.42,3.73,3.32,4.19V95.3l-12.05,12.05H35.01L19.06,123.3
						h-6.6c-0.45-1.9-2.15-3.32-4.18-3.32c-2.38,0-4.31,1.94-4.31,4.32c0,2.37,1.93,4.31,4.31,4.31c2.03,0,3.73-1.42,4.18-3.31h7.43
						l15.95-15.95h38.63L87.7,96.13v-25.3c1.89-0.46,3.31-2.16,3.31-4.19C91.01,64.26,89.08,62.33,86.7,62.33z M8.28,126.61
						c-1.28,0-2.31-1.04-2.31-2.31c0-1.28,1.03-2.32,2.31-2.32c1.28,0,2.31,1.04,2.31,2.32C10.59,125.57,9.56,126.61,8.28,126.61z
						 M86.7,68.95c-1.28,0-2.32-1.03-2.32-2.31c0-1.27,1.04-2.31,2.32-2.31c1.27,0,2.31,1.04,2.31,2.31
						C89.01,67.92,87.97,68.95,86.7,68.95z"/>
				</g>
			</g>
			<g>
				<g>
					<path class="st1" d="M135.37,11.79V0h-2v10.96L98.36,45.97v6.76c-1.9,0.45-3.32,2.15-3.32,4.18c0,2.38,1.94,4.31,4.32,4.31
						c2.38,0,4.31-1.93,4.31-4.31c0-2.03-1.42-3.73-3.31-4.18V46.8L135.37,11.79z M101.67,56.91c0,1.28-1.04,2.31-2.31,2.31
						c-1.28,0-2.32-1.03-2.32-2.31c0-1.28,1.04-2.31,2.32-2.31C100.63,54.6,101.67,55.63,101.67,56.91z"/>
				</g>
			</g>
			<g>
				<g>
					<path class="st1" d="M110.43,0v3.34c-1.75,2.32-19.92,20.17-32.41,32.29c-0.69-0.47-1.52-0.74-2.42-0.74
						c-2.38,0-4.31,1.93-4.31,4.31s1.93,4.31,4.31,4.31s4.31-1.93,4.31-4.31c0-0.76-0.21-1.46-0.55-2.08
						c33.06-32.07,33.07-32.97,33.07-33.51V0H110.43z M75.6,41.51c-1.27,0-2.31-1.04-2.31-2.31c0-1.28,1.04-2.31,2.31-2.31
						c1.28,0,2.31,1.03,2.31,2.31C77.91,40.47,76.88,41.51,75.6,41.51z"/>
				</g>
			</g>
			<g>
				<g>
					<path class="st1" d="M64.15,44.51V0h-2v43.68L43.93,61.9v13.9c-1.91,0.44-3.35,2.15-3.35,4.2c0,2.38,1.94,4.31,4.32,4.31
						s4.31-1.93,4.31-4.31c0-2.02-1.4-3.71-3.28-4.17v-13.1L64.15,44.51z M47.21,80c0,1.27-1.04,2.31-2.31,2.31
						c-1.28,0-2.32-1.04-2.32-2.31c0-1.28,1.04-2.31,2.32-2.31C46.17,77.69,47.21,78.72,47.21,80z"/>
				</g>
			</g>
			<g>
				<g>
					<path class="st1" d="M81.78,0h-3.4c1.17,0.12,2.08,1.11,2.08,2.3c0,1.28-1.04,2.31-2.31,2.31c-1.28,0-2.32-1.03-2.32-2.31
						c0-1.19,0.91-2.18,2.08-2.3h-3.4c-0.44,0.66-0.68,1.45-0.68,2.3c0,2.38,1.94,4.31,4.32,4.31s4.31-1.93,4.31-4.31
						C82.46,1.45,82.21,0.66,81.78,0z M93.06,0h-3.4c1.16,0.12,2.07,1.11,2.07,2.3c0,1.28-1.03,2.31-2.31,2.31
						c-1.27,0-2.31-1.03-2.31-2.31c0-1.19,0.91-2.18,2.07-2.3h-3.4c-0.42,0.67-0.67,1.46-0.67,2.3c0,2.38,1.93,4.31,4.31,4.31
						s4.31-1.93,4.31-4.31C93.73,1.45,93.48,0.66,93.06,0z M104.33,0h-3.39c1.16,0.12,2.07,1.11,2.07,2.3
						c0,1.28-1.04,2.31-2.31,2.31c-1.28,0-2.32-1.03-2.32-2.31c0-1.19,0.91-2.18,2.08-2.3h-3.4c-0.43,0.66-0.68,1.45-0.68,2.3
						c0,2.38,1.94,4.31,4.32,4.31c2.37,0,4.31-1.93,4.31-4.31C105.01,1.45,104.77,0.66,104.33,0z"/>
				</g>
			</g>
			<g>
				<rect x="122.26" y="382.97" class="st1" width="5" height="17.03"/>
			</g>
			<g>
				<g>
					<path class="st1" d="M111.43,385.46c-2.38,0-4.31,1.94-4.31,4.31c0,2.04,1.42,3.73,3.31,4.19V400h2v-6.04
						c1.9-0.46,3.32-2.15,3.32-4.19C115.75,387.4,113.81,385.46,111.43,385.46z M111.43,392.09c-1.27,0-2.31-1.04-2.31-2.32
						c0-1.27,1.04-2.31,2.31-2.31c1.28,0,2.32,1.04,2.32,2.31C113.75,391.05,112.71,392.09,111.43,392.09z"/>
				</g>
			</g>
			<g>
				<g>
					<path class="st1" d="M134.37,372.26c-2.38,0-4.31,1.94-4.31,4.31c0,2.04,1.41,3.73,3.31,4.19V400h2v-19.24
						c1.89-0.46,3.31-2.15,3.31-4.19C138.68,374.2,136.75,372.26,134.37,372.26z M134.37,378.89c-1.28,0-2.31-1.04-2.31-2.32
						c0-1.27,1.03-2.31,2.31-2.31c1.27,0,2.31,1.04,2.31,2.31C136.68,377.85,135.64,378.89,134.37,378.89z"/>
				</g>
			</g>
			<g>
				<g>
					<path class="st1" d="M63.15,384.35c-2.38,0-4.31,1.93-4.31,4.31c0,2.03,1.41,3.73,3.31,4.19V400h2v-7.15
						c1.9-0.46,3.31-2.16,3.31-4.19C67.46,386.28,65.53,384.35,63.15,384.35z M63.15,390.97c-1.28,0-2.31-1.03-2.31-2.31
						c0-1.27,1.03-2.31,2.31-2.31c1.28,0,2.31,1.04,2.31,2.31C65.46,389.94,64.43,390.97,63.15,390.97z"/>
				</g>
			</g>
			<g>
				<g>
					<path class="st1" d="M54.05,376.06c-2.38,0-4.31,1.93-4.31,4.31c0,2.03,1.41,3.73,3.31,4.19V400h2v-15.44
						c1.9-0.46,3.31-2.16,3.31-4.19C58.36,377.99,56.43,376.06,54.05,376.06z M54.05,382.68c-1.28,0-2.31-1.03-2.31-2.31
						c0-1.27,1.03-2.31,2.31-2.31c1.28,0,2.31,1.04,2.31,2.31C56.36,381.65,55.33,382.68,54.05,382.68z"/>
				</g>
			</g>
			<g>
				<g>
					<path class="st1" d="M101.7,398.12v-8.08l-26.99-26.99v-11.72h3.46v-5H47.54v5h2.62v12.54l26.99,26.99v7.26
						c-1.11,0.26-2.05,0.95-2.64,1.88h3.4c0.08-0.01,0.16-0.01,0.24-0.01s0.16,0,0.23,0.01h3.4c-0.58-0.93-1.53-1.62-2.63-1.88
						v-8.08l-26.99-26.99v-11.72h9.62v12.54l26.58,26.58v7.69c-1.08,0.27-2,0.95-2.58,1.86h3.4c0.08-0.01,0.16-0.01,0.24-0.01
						c0.08,0,0.16,0,0.24,0.01h3.4c-0.6-0.95-1.57-1.65-2.7-1.9v-8.48l-26.58-26.57v-11.72h8.93v12.54l26.99,26.99v7.26
						c-1.11,0.26-2.05,0.95-2.64,1.88h3.4c0.08-0.01,0.16-0.01,0.24-0.01s0.16,0,0.24,0.01h3.39
						C103.75,399.07,102.8,398.38,101.7,398.12z"/>
				</g>
			</g>
			<g>
				<g>
					<path class="st1" d="M112.59,150.89c-2.38,0-4.32,1.94-4.32,4.32c0,2.03,1.42,3.73,3.32,4.18v7.25L84.6,193.63v12.54h-8.93
						v-11.71l26.58-26.58v-8.47c1.93-0.43,3.37-2.15,3.37-4.2c0-2.38-1.93-4.32-4.31-4.32S97,152.83,97,155.21
						c0,2.01,1.39,3.68,3.25,4.16v7.69l-26.58,26.57v12.54h-9.62v-11.71l26.99-26.99v-8.08c1.89-0.45,3.31-2.15,3.31-4.18
						c0-2.38-1.93-4.32-4.31-4.32s-4.32,1.94-4.32,4.32c0,2.03,1.42,3.73,3.32,4.18v7.25l-26.99,26.99v12.54h-2.62v5h2.62v11.72
						l-26.99,26.99v8.08c-1.9,0.45-3.32,2.15-3.32,4.18c0,2.38,1.94,4.31,4.32,4.31s4.31-1.93,4.31-4.31c0-2.03-1.42-3.73-3.31-4.18
						v-7.26l26.99-26.99v-12.54h8.92v11.72L46.4,249.46v8.48c-1.93,0.43-3.38,2.14-3.38,4.2c0,2.38,1.93,4.31,4.31,4.31
						s4.31-1.93,4.31-4.31c0-2.01-1.38-3.69-3.24-4.16v-7.69l26.57-26.58v-12.54h9.63v11.72l-26.99,26.99v8.08
						c-1.9,0.45-3.32,2.15-3.32,4.18c0,2.38,1.94,4.31,4.32,4.31c2.37,0,4.31-1.93,4.31-4.31c0-2.03-1.42-3.73-3.31-4.18v-7.26
						l26.99-26.99v-12.54h3.46v-5H86.6v-11.71l26.99-26.99v-8.08c1.89-0.45,3.31-2.15,3.31-4.18
						C116.9,152.83,114.96,150.89,112.59,150.89z M99,155.21c0-1.28,1.04-2.32,2.31-2.32c1.28,0,2.31,1.04,2.31,2.32
						c0,1.27-1.03,2.31-2.31,2.31C100.04,157.52,99,156.48,99,155.21z M87.72,155.21c0-1.28,1.04-2.32,2.32-2.32
						c1.27,0,2.31,1.04,2.31,2.32c0,1.27-1.04,2.31-2.31,2.31C88.76,157.52,87.72,156.48,87.72,155.21z M38.37,262.14
						c0,1.28-1.04,2.31-2.31,2.31c-1.28,0-2.32-1.03-2.32-2.31c0-1.28,1.04-2.31,2.32-2.31C37.33,259.83,38.37,260.86,38.37,262.14z
						 M49.64,262.14c0,1.28-1.03,2.31-2.31,2.31c-1.27,0-2.31-1.03-2.31-2.31c0-1.28,1.04-2.31,2.31-2.31
						C48.61,259.83,49.64,260.86,49.64,262.14z M60.92,262.14c0,1.28-1.04,2.31-2.31,2.31c-1.28,0-2.32-1.03-2.32-2.31
						c0-1.28,1.04-2.31,2.32-2.31C59.88,259.83,60.92,260.86,60.92,262.14z M112.59,157.52c-1.28,0-2.32-1.04-2.32-2.31
						c0-1.28,1.04-2.32,2.32-2.32c1.27,0,2.31,1.04,2.31,2.32C114.9,156.48,113.86,157.52,112.59,157.52z"/>
				</g>
			</g>
			<g>
				<g>
					<path class="st1" d="M77.93,150.89c-2.37,0-4.31,1.94-4.31,4.32c0,2.03,1.42,3.73,3.31,4.18v7.25l-26.99,26.99v24.17
						c-1.89,0.46-3.31,2.15-3.31,4.19c0,2.37,1.94,4.31,4.31,4.31c2.38,0,4.32-1.94,4.32-4.31c0-2.04-1.42-3.73-3.32-4.19v-23.34
						l26.99-26.99v-8.08c1.9-0.45,3.32-2.15,3.32-4.18C82.25,152.83,80.31,150.89,77.93,150.89z M53.26,221.99
						c0,1.27-1.04,2.31-2.32,2.31c-1.27,0-2.31-1.04-2.31-2.31c0-1.28,1.04-2.32,2.31-2.32C52.22,219.67,53.26,220.71,53.26,221.99z
						 M77.93,157.52c-1.27,0-2.31-1.04-2.31-2.31c0-1.28,1.04-2.32,2.31-2.32c1.28,0,2.32,1.04,2.32,2.32
						C80.25,156.48,79.21,157.52,77.93,157.52z"/>
				</g>
			</g>
			<g>
				<g>
					<path class="st1" d="M44.67,390.3c-2.03,0-3.73,1.41-4.19,3.31H19.13L7.08,381.56v-19.47c1.9-0.46,3.32-2.15,3.32-4.19
						c0-2.38-1.94-4.31-4.32-4.31s-4.31,1.93-4.31,4.31c0,2.04,1.42,3.73,3.31,4.19v20.3l13.23,13.22h22.17
						c0.46,1.9,2.16,3.31,4.19,3.31c2.38,0,4.31-1.93,4.31-4.31S47.05,390.3,44.67,390.3z M3.77,357.9c0-1.27,1.04-2.31,2.31-2.31
						c1.28,0,2.32,1.04,2.32,2.31c0,1.28-1.04,2.32-2.32,2.32C4.81,360.22,3.77,359.18,3.77,357.9z M44.67,396.92
						c-1.28,0-2.31-1.03-2.31-2.31c0-1.28,1.03-2.31,2.31-2.31c1.27,0,2.31,1.03,2.31,2.31C46.98,395.89,45.94,396.92,44.67,396.92z
						"/>
				</g>
			</g>
			<g>
				<polygon class="st1" points="39.52,384.3 39.52,389.3 25.2,389.3 13.31,377.41 13.31,350.87 0,337.56 0,330.49 18.31,348.8 
					18.31,375.34 27.27,384.3 				"/>
			</g>
			<g>
				<polygon class="st1" points="400,330.49 400,337.56 388.66,326.22 388.66,308.82 393.66,308.82 393.66,324.15 				"/>
			</g>
			<g>
				<g>
					<path class="st1" d="M31.52,365.08v-20.03c0-0.5-0.01-1.43-18.37-18.82c0.34-0.61,0.55-1.31,0.55-2.06
						c0-2.38-1.93-4.32-4.31-4.32s-4.31,1.94-4.31,4.32s1.93,4.31,4.31,4.31c0.9,0,1.74-0.28,2.43-0.75
						c6.61,6.26,16.54,15.88,17.7,17.55v19.8c-1.89,0.45-3.31,2.15-3.31,4.18c0,2.38,1.93,4.32,4.31,4.32s4.32-1.94,4.32-4.32
						C34.84,367.23,33.42,365.53,31.52,365.08z M9.39,326.48c-1.28,0-2.31-1.04-2.31-2.31c0-1.28,1.03-2.32,2.31-2.32
						c1.28,0,2.31,1.04,2.31,2.32C11.7,325.44,10.67,326.48,9.39,326.48z M30.52,371.58c-1.27,0-2.31-1.04-2.31-2.32
						c0-1.27,1.04-2.31,2.31-2.31c1.28,0,2.32,1.04,2.32,2.31C32.84,370.54,31.8,371.58,30.52,371.58z"/>
				</g>
			</g>
			<g>
				<g>
					<path class="st1" d="M46.23,279.8c-2.37,0-4.31,1.93-4.31,4.31c0,2.03,1.42,3.73,3.31,4.19v25.31l-4.36,4.36v-27.14l-3.39-3.4
						v-6.29c1.89-0.45,3.31-2.15,3.31-4.18c0-2.38-1.93-4.32-4.31-4.32s-4.32,1.94-4.32,4.32c0,2.03,1.42,3.73,3.32,4.18v7.12
						l3.39,3.39v30.38h0.01v17.43c-1.9,0.46-3.32,2.16-3.32,4.19c0,2.38,1.94,4.31,4.32,4.31c2.37,0,4.31-1.93,4.31-4.31
						c0-2.03-1.42-3.73-3.31-4.19V320.8l6.35-6.36V288.3c1.9-0.46,3.32-2.16,3.32-4.19C50.55,281.73,48.61,279.8,46.23,279.8z
						 M34.16,276.96c0-1.28,1.04-2.32,2.32-2.32c1.27,0,2.31,1.04,2.31,2.32c0,1.27-1.04,2.31-2.31,2.31
						C35.2,279.27,34.16,278.23,34.16,276.96z M42.19,343.65c0,1.27-1.04,2.31-2.31,2.31c-1.28,0-2.32-1.04-2.32-2.31
						c0-1.28,1.04-2.31,2.32-2.31C41.15,341.34,42.19,342.37,42.19,343.65z M46.23,286.43c-1.27,0-2.31-1.04-2.31-2.32
						c0-1.27,1.04-2.31,2.31-2.31c1.28,0,2.32,1.04,2.32,2.31C48.55,285.39,47.51,286.43,46.23,286.43z"/>
				</g>
			</g>
			<g>
				<g>
					<path class="st1" d="M43.05,155.11c-2.37,0-4.31,1.93-4.31,4.31c0,2.03,1.42,3.73,3.31,4.19v25.31l-4.36,4.36v-27.14l-3.39-3.4
						v-6.29c1.89-0.45,3.31-2.15,3.31-4.18c0-2.38-1.93-4.32-4.31-4.32c-2.38,0-4.32,1.94-4.32,4.32c0,2.03,1.42,3.73,3.32,4.18
						v7.12l3.39,3.39v30.38h0.01v17.43c-1.9,0.46-3.32,2.16-3.32,4.19c0,2.38,1.94,4.31,4.32,4.31c2.37,0,4.31-1.93,4.31-4.31
						c0-2.03-1.42-3.73-3.31-4.19v-18.66l6.35-6.36v-26.14c1.9-0.46,3.32-2.16,3.32-4.19C47.37,157.04,45.43,155.11,43.05,155.11z
						 M30.98,152.27c0-1.28,1.04-2.32,2.32-2.32c1.27,0,2.31,1.04,2.31,2.32c0,1.27-1.04,2.31-2.31,2.31
						C32.02,154.58,30.98,153.54,30.98,152.27z M39.01,218.96c0,1.27-1.04,2.31-2.31,2.31c-1.28,0-2.32-1.04-2.32-2.31
						c0-1.28,1.04-2.31,2.32-2.31C37.97,216.65,39.01,217.68,39.01,218.96z M43.05,161.73c-1.27,0-2.31-1.03-2.31-2.31
						c0-1.27,1.04-2.31,2.31-2.31c1.28,0,2.32,1.04,2.32,2.31C45.37,160.7,44.33,161.73,43.05,161.73z"/>
				</g>
			</g>
			<g>
				<g>
					<path class="st1" d="M26.58,295.06v-63.25c1.89-0.45,3.31-2.15,3.31-4.18c0-2.38-1.93-4.32-4.31-4.32s-4.32,1.94-4.32,4.32
						c0,2.03,1.42,3.73,3.32,4.18v62.42l-12.13,12.12v5l7.61,7.61c-0.37,0.64-0.6,1.37-0.6,2.16c0,2.38,1.93,4.32,4.31,4.32
						s4.32-1.94,4.32-4.32c0-2.37-1.94-4.31-4.32-4.31c-0.86,0-1.66,0.26-2.33,0.7l-6.99-6.98v-3.35L26.58,295.06z M23.26,227.63
						c0-1.28,1.04-2.32,2.32-2.32c1.27,0,2.31,1.04,2.31,2.32c0,1.27-1.04,2.31-2.31,2.31C24.3,229.94,23.26,228.9,23.26,227.63z
						 M23.77,318.81c1.28,0,2.32,1.04,2.32,2.31c0,1.28-1.04,2.32-2.32,2.32c-1.27,0-2.31-1.04-2.31-2.32
						C21.46,319.85,22.5,318.81,23.77,318.81z"/>
				</g>
			</g>
			<g>
				<g>
					<path class="st1" d="M323.61,56V37.86l-6.36-6.36V12.84c1.89-0.46,3.31-2.15,3.31-4.19c0-2.38-1.93-4.31-4.31-4.31
						s-4.32,1.93-4.32,4.31c0,2.04,1.42,3.73,3.32,4.19v39.81l-3.4,3.39v7.12c-1.9,0.45-3.32,2.15-3.32,4.18
						c0,2.38,1.94,4.32,4.32,4.32s4.31-1.94,4.31-4.32c0-2.03-1.42-3.73-3.31-4.18v-6.29l3.4-3.4V34.33l4.36,4.36V56
						c-1.9,0.46-3.32,2.16-3.32,4.19c0,2.38,1.94,4.31,4.32,4.31c2.37,0,4.31-1.93,4.31-4.31C326.92,58.16,325.5,56.46,323.61,56z
						 M315.16,67.34c0,1.28-1.04,2.32-2.31,2.32c-1.28,0-2.32-1.04-2.32-2.32c0-1.27,1.04-2.31,2.32-2.31
						C314.12,65.03,315.16,66.07,315.16,67.34z M316.25,10.97c-1.28,0-2.32-1.04-2.32-2.32c0-1.27,1.04-2.31,2.32-2.31
						c1.27,0,2.31,1.04,2.31,2.31C318.56,9.93,317.52,10.97,316.25,10.97z M322.61,62.5c-1.28,0-2.32-1.04-2.32-2.31
						c0-1.28,1.04-2.31,2.32-2.31c1.27,0,2.31,1.03,2.31,2.31C324.92,61.46,323.88,62.5,322.61,62.5z"/>
				</g>
			</g>
			<g>
				<g>
					<path class="st1" d="M391.17,36.01c-2.22,0-4.08,1.55-4.57,3.62h-8.05l-6.9-6.9h-10.47l-6.99,7h-21.46v-6.26h19.7l7.35-7.35
						h15.83c0.46,2.12,2.35,3.71,4.61,3.71c2.6,0,4.71-2.11,4.71-4.71c0-2.61-2.11-4.72-4.71-4.72c-2.26,0-4.15,1.59-4.61,3.72
						h-16.65l-7.36,7.35h-18.87v-6.73h17.93l8.2-8.2h10.32l5.26-5.26h9.29c0.46,2.12,2.35,3.72,4.61,3.72c2.6,0,4.72-2.12,4.72-4.72
						c0-2.6-2.12-4.72-4.72-4.72c-2.26,0-4.15,1.6-4.61,3.72h-10.12l-5.26,5.26h-10.32l-8.19,8.2h-17.11v-9.89
						c1.89-0.46,3.31-2.15,3.31-4.19c0-2.37-1.94-4.31-4.31-4.31c-2.38,0-4.32,1.94-4.32,4.31c0,2.04,1.42,3.73,3.32,4.19v32.26
						l12.12,12.12v3.35l-6.98,6.98c-0.68-0.44-1.48-0.7-2.34-0.7c-2.38,0-4.31,1.94-4.31,4.32c0,2.37,1.93,4.31,4.31,4.31
						s4.32-1.94,4.32-4.31c0-0.8-0.23-1.53-0.61-2.17l7.61-7.6V56.4l-12.12-12.12v-2.55h22.28l6.99-7h8.82l6.9,6.9h8.83
						c0.42,2.17,2.33,3.81,4.62,3.81c2.61,0,4.72-2.11,4.72-4.71C395.89,38.12,393.78,36.01,391.17,36.01z M380.22,22.4
						c1.49,0,2.71,1.22,2.71,2.72c0,1.49-1.22,2.71-2.71,2.71c-1.5,0-2.72-1.22-2.72-2.71C377.5,23.62,378.72,22.4,380.22,22.4z
						 M388.34,7.56c1.5,0,2.72,1.22,2.72,2.72S389.84,13,388.34,13s-2.72-1.22-2.72-2.72S386.84,7.56,388.34,7.56z M333.53,73.49
						c-1.27,0-2.31-1.04-2.31-2.31c0-1.28,1.04-2.32,2.31-2.32c1.28,0,2.32,1.04,2.32,2.32C335.85,72.45,334.81,73.49,333.53,73.49z
						 M331.73,10.98c-1.28,0-2.32-1.04-2.32-2.32c0-1.27,1.04-2.31,2.32-2.31c1.27,0,2.31,1.04,2.31,2.31
						C334.04,9.94,333,10.98,331.73,10.98z M391.17,43.44c-1.49,0-2.71-1.22-2.71-2.71c0-1.5,1.22-2.72,2.71-2.72
						c1.5,0,2.72,1.22,2.72,2.72C393.89,42.22,392.67,43.44,391.17,43.44z"/>
				</g>
			</g>
			<g>
				<g>
					<path class="st1" d="M108.26,134.1c-2.26,0-4.14,1.57-4.64,3.68h-8.19l-7.01-7.01H77.78l-7.1,7.11H42.47v-4.43h26.41l7.47-7.48
						h16.1c0.47,2.16,2.38,3.78,4.67,3.78c2.64,0,4.78-2.14,4.78-4.78c0-2.63-2.14-4.78-4.78-4.78c-2.29,0-4.2,1.63-4.67,3.78H75.53
						l-7.48,7.48H42.47v-4.31h24.61l8.34-8.33H85.9l5.34-5.34h9.47c0.46,2.15,2.38,3.78,4.67,3.78c2.64,0,4.78-2.15,4.78-4.78
						c0-2.64-2.14-4.78-4.78-4.78c-2.29,0-4.21,1.62-4.67,3.78H90.42l-5.35,5.34H74.59l-8.33,8.33H42.47v-0.86H26.13v16.34h16.34
						v-0.74h29.04l7.1-7.11h8.98l7.01,7.01h8.97c0.43,2.2,2.37,3.87,4.69,3.87c2.64,0,4.78-2.14,4.78-4.77
						C113.04,136.24,110.9,134.1,108.26,134.1z M97.12,122.19c1.54,0,2.78,1.25,2.78,2.78c0,1.54-1.24,2.78-2.78,2.78
						c-1.53,0-2.78-1.24-2.78-2.78C94.34,123.44,95.59,122.19,97.12,122.19z M105.38,109.69c1.53,0,2.78,1.24,2.78,2.78
						c0,1.53-1.25,2.78-2.78,2.78c-1.53,0-2.78-1.25-2.78-2.78C102.6,110.93,103.85,109.69,105.38,109.69z M108.26,141.65
						c-1.53,0-2.78-1.24-2.78-2.77c0-1.54,1.25-2.78,2.78-2.78c1.53,0,2.78,1.24,2.78,2.78
						C111.04,140.41,109.79,141.65,108.26,141.65z"/>
				</g>
			</g>
			<g>
				<g>
					<path class="st1" d="M55.05,36.58V0h-2v4.98H42.31l-5.85,5.85h-7.24l-5.76-5.77h-7.32c-0.42-1.82-2.05-3.18-4-3.18
						c-2.27,0-4.11,1.84-4.11,4.1c0,2.27,1.84,4.11,4.11,4.11c1.89,0,3.47-1.29,3.95-3.03h6.54l5.77,5.77h8.89l5.85-5.85h9.91v7.41
						h-8.58l-6.15,6.15H25.28c-0.45-1.78-2.06-3.11-3.98-3.11c-2.26,0-4.11,1.84-4.11,4.11c0,2.26,1.85,4.11,4.11,4.11
						c1.92,0,3.53-1.33,3.98-3.11h13.87l6.15-6.15h7.75v7.3h-7.1l-6.86,6.86h-8.62l-4.4,4.39h-7.59c-0.45-1.78-2.05-3.11-3.97-3.11
						c-2.27,0-4.11,1.85-4.11,4.11c0,2.27,1.84,4.11,4.11,4.11c1.92,0,3.52-1.32,3.97-3.11h8.42l4.39-4.39h8.63l6.86-6.86h6.27
						v10.06l-17.99,18V66.5c-1.9,0.46-3.32,2.15-3.32,4.19c0,2.37,1.94,4.31,4.32,4.31c2.37,0,4.31-1.94,4.31-4.31
						c0-2.04-1.42-3.73-3.31-4.19V54.57L55.05,36.58z M12.14,8.09c-1.16,0-2.11-0.94-2.11-2.11c0-1.16,0.95-2.1,2.11-2.1
						c1.16,0,2.11,0.94,2.11,2.1C14.25,7.15,13.3,8.09,12.14,8.09z M21.3,23.65c-1.16,0-2.11-0.95-2.11-2.11
						c0-1.16,0.95-2.11,2.11-2.11c1.17,0,2.11,0.95,2.11,2.11C23.41,22.7,22.47,23.65,21.3,23.65z M14.51,38.05
						c-1.16,0-2.11-0.94-2.11-2.11c0-1.16,0.95-2.11,2.11-2.11c1.16,0,2.11,0.95,2.11,2.11C16.62,37.11,15.67,38.05,14.51,38.05z
						 M38.37,70.69c0,1.27-1.04,2.31-2.31,2.31c-1.28,0-2.32-1.04-2.32-2.31c0-1.28,1.04-2.32,2.32-2.32
						C37.33,68.37,38.37,69.41,38.37,70.69z"/>
				</g>
			</g>
		</g>
	</g>
</g>
</svg>
